<?xml version="1.0" encoding="UTF-8"?> <svg xmlns="http://www.w3.org/2000/svg" xmlns:xlink="http://www.w3.org/1999/xlink" viewBox="0 0 279.15 387.06"><defs><style>.cls-1,.cls-2{fill:none;}.cls-1{clip-rule:evenodd;}.cls-3{clip-path:url(#clip-path);}.cls-4{clip-path:url(#clip-path-2);}.cls-5{fill:#d1effb;}.cls-6{clip-path:url(#clip-path-3);}.cls-7{fill:#a4dff7;}.cls-8{clip-path:url(#clip-path-5);}.cls-9{fill:#1cafec;}.cls-10{clip-path:url(#clip-path-7);}.cls-11{fill:#49bfef;}.cls-12{clip-path:url(#clip-path-9);}.cls-13{clip-path:url(#clip-path-11);}.cls-14{clip-path:url(#clip-path-13);}.cls-15{fill:#121f55;}.cls-16{clip-path:url(#clip-path-15);}.cls-17{clip-path:url(#clip-path-17);}.cls-18{fill:#794238;}.cls-19{clip-path:url(#clip-path-19);}.cls-20{clip-path:url(#clip-path-21);}.cls-21{clip-path:url(#clip-path-23);}.cls-22{clip-path:url(#clip-path-25);}.cls-23{fill:#f1812d;}.cls-24{clip-path:url(#clip-path-27);}.cls-25{clip-path:url(#clip-path-29);}.cls-26{clip-path:url(#clip-path-31);}.cls-27{clip-path:url(#clip-path-33);}.cls-28{fill:#f39a57;}.cls-29{clip-path:url(#clip-path-35);}.cls-30{clip-path:url(#clip-path-37);}.cls-31{clip-path:url(#clip-path-39);}.cls-32{clip-path:url(#clip-path-41);}.cls-33{clip-path:url(#clip-path-43);}.cls-34{clip-path:url(#clip-path-45);}.cls-35{clip-path:url(#clip-path-46);}.cls-36{fill:#f6b381;}.cls-37{clip-path:url(#clip-path-47);}.cls-38{clip-path:url(#clip-path-49);}.cls-39{fill:#fff;}.cls-40{clip-path:url(#clip-path-51);}.cls-41{clip-path:url(#clip-path-53);}.cls-42{clip-path:url(#clip-path-55);}.cls-43{clip-path:url(#clip-path-57);}.cls-44{clip-path:url(#clip-path-59);}</style><clipPath id="clip-path" transform="translate(-777.06 -1595.96)"><path class="cls-1" d="M782.21,1735.33a3.36,3.36,0,0,0,2.24,4.19l27.87,8.45a3.37,3.37,0,0,0,4.19-2.24L828.85,1705a3.36,3.36,0,0,0-2.24-4.19L807.32,1695,792,1703.18Z"></path></clipPath><clipPath id="clip-path-2" transform="translate(-777.06 -1595.96)"><rect class="cls-2" y="923.96" width="1440" height="2367"></rect></clipPath><clipPath id="clip-path-3" transform="translate(-777.06 -1595.96)"><polygon class="cls-1" points="803 1705.35 789.07 1712.68 791.96 1703.17 793.35 1702.43 803 1705.35"></polygon></clipPath><clipPath id="clip-path-5" transform="translate(-777.06 -1595.96)"><path class="cls-1" d="M807.32,1695l-2.6,8.57a3.35,3.35,0,0,1-4.19,2.24l-8.57-2.59Z"></path></clipPath><clipPath id="clip-path-7" transform="translate(-777.06 -1595.96)"><rect class="cls-2" x="805.81" y="1726.82" width="2.24" height="11.2" transform="translate(-1085.05 2002.23) rotate(-73.14)"></rect></clipPath><clipPath id="clip-path-9" transform="translate(-777.06 -1595.96)"><rect class="cls-2" x="806.04" y="1703.6" width="2.24" height="22.4" transform="translate(-1068.03 1989.97) rotate(-73.14)"></rect></clipPath><clipPath id="clip-path-11" transform="translate(-777.06 -1595.96)"><rect class="cls-2" x="803.04" y="1711.6" width="2.24" height="22.4" transform="translate(-1077.82 1992.78) rotate(-73.14)"></rect></clipPath><clipPath id="clip-path-13" transform="translate(-777.06 -1595.96)"><path class="cls-1" d="M1028.2,1937.76c-.83-.28-1.41-2-1.41-2s7.71-6,10.75-7a15.9,15.9,0,0,1,3.82-.43c.25,0,1,.42,1.22.41.45,0,.42-.44.81-.44a10.64,10.64,0,0,1,1.8.1c3.06,3.34,3,5.47,3,5.47s-5.51,6.31-7.93,5.85c-6.14-1.14-10.29-1.32-12.1-1.94"></path></clipPath><clipPath id="clip-path-15" transform="translate(-777.06 -1595.96)"><path class="cls-1" d="M982.94,1955l2.34,7-6.43,3.62s-.86-.69-1.4-.39-.55,1.49-1.17,1.84l-3.45,1.94-12.91,7.27s-1-1.17-.94-1.83a7.44,7.44,0,0,1,1.5-2c2.8-2.8,10.66-11.07,10.53-15.17-.16-5,11.93-2.31,11.93-2.31"></path></clipPath><clipPath id="clip-path-17" transform="translate(-777.06 -1595.96)"><path class="cls-1" d="M892.64,1733.19l-3-8.42s-6.1,1.37-7.78-1.78c-3.39-6.3-2.91-17.23-1.88-20.42,2.93-9.09,2.52-24.21,23.67-15.22,8.05,3.42-.2,26.87-.36,31.72s3.15,9.9,3.15,9.9l-4,4.07Z"></path></clipPath><clipPath id="clip-path-19" transform="translate(-777.06 -1595.96)"><path class="cls-1" d="M954,1769.18l-28,26.29s21.66-5.58,36.14-17.35-6.44-9.58-8.12-8.94"></path></clipPath><clipPath id="clip-path-21" transform="translate(-777.06 -1595.96)"><path class="cls-1" d="M981.15,1856.67s-2.35,23.49,9.6,35.06c21.26,20.58,35.91,36.76,43,43.65,2.75,2.67,3.3,1.55,3.3,1.55l7.35-3.47,1.53-4.85-44.19-49.82Z"></path></clipPath><clipPath id="clip-path-23" transform="translate(-777.06 -1595.96)"><path class="cls-1" d="M841.12,1756.72l-32.78-14.23s25,29.83,37.36,27-4.58-12.73-4.58-12.73"></path></clipPath><clipPath id="clip-path-25" transform="translate(-777.06 -1595.96)"><path class="cls-1" d="M906.22,1725.3s7.59-2,34.91,17.61,24.26,20.93,24.26,20.93l4.85,5.89-7.71,10-25.38-15Z"></path></clipPath><clipPath id="clip-path-27" transform="translate(-777.06 -1595.96)"><path class="cls-1" d="M923,1827.11s47.2,47,75.72,70.91c16.72,14,5.26-12,5.26-12l-65.66-92-35.2,15.89s5.9,2.7,19.88,17.22"></path></clipPath><clipPath id="clip-path-29" transform="translate(-777.06 -1595.96)"><path class="cls-1" d="M944.57,1812.68s-1.2,85.18-1.65,89.87c-1.52,15.85-13.35-1.82-16.16-6.35s-13.87-40.31-19.29-67l-5.41-26.69Z"></path></clipPath><clipPath id="clip-path-31" transform="translate(-777.06 -1595.96)"><path class="cls-1" d="M936.66,1877s7.64,9.26,16.58,21.55c6.56,9,22.12,36.62,31.12,56.79.55,1.23-13.64,4.52-13.64,4.52s-34.64-51.15-42.42-62.59-4.11-24.56,8.36-20.27"></path></clipPath><clipPath id="clip-path-33" transform="translate(-777.06 -1595.96)"><path class="cls-1" d="M921.42,1730.68l-12.94-4.62-6-3-16.58,5.72-.86,6.44-10.37,11s-1,6.77,9.49,26.48c11.66,21.84,16.07,57.65,22.15,58.71,39.84,7,46.46-17.75,46.46-17.75s-6.45-49.07-31.37-83"></path></clipPath><clipPath id="clip-path-35" transform="translate(-777.06 -1595.96)"><path class="cls-1" d="M897.55,1738.42s3.62,2.81-5.09,10.9c-14.85,13.79-34,21.31-37.64,22.9s-8.91,3.64-15.56-1.1c-5.1-3.62-6.81-4.78-6.81-4.78l6.28-11.88,3.54,1.54,1.77,1.16s13-7.08,24.73-14.51,28.78-4.23,28.78-4.23"></path></clipPath><clipPath id="clip-path-37" transform="translate(-777.06 -1595.96)"><path class="cls-1" d="M885.81,1704.26s2-1.67,2.59,0-.06,5.53-1,6-.64,5.09-.64,5.09l3.44,4.68,13.68-2s4-2.47,3.86-5.57.15-25,.15-25l-10.37-3.67a65.42,65.42,0,0,0-9.13-2.29c-5.67-.77-6.39,2.31-6,3.8s-1.28,1.92-3.47,2.24-4.66,2.39-3.33,3.24c.55.34-1.44,2-.34,3.49,1.58,2.12,5.83,2.27,6.71,5.94.4,1.66,1.91,7.13,3.87,4.09"></path></clipPath><clipPath id="clip-path-39" transform="translate(-777.06 -1595.96)"><path class="cls-1" d="M813,1748.57s3.71-4.8,3.3-6.48-2.34-7.75-2.34-7.75l-.64-1.5s-2-.23-.71,3.83-.4,2.42-.4,2.42l-2.62-3.23-3.53-3.72-1.35-1.84s-.68-1.1-1.07-1.23c-1.13-.36-1,.62-1,.62l4.65,7.61-6.21-5.88s-.92-.61-1.4-.29-.2.57-.2.57L805,1740l-3.54-2.67s-.92-.6-1.4-.3-.68.4-.68.4l12.22,12.16Z"></path></clipPath><clipPath id="clip-path-41" transform="translate(-777.06 -1595.96)"><path class="cls-1" d="M1004.29,1725.46c-13.21-.72-17-11.5-20.2-23,0,0-9.09-2.74-12.44-3.84a40.56,40.56,0,0,0-18.5-2.25,70.43,70.43,0,0,0-14.24,3c12,1.71,15,13.14,17.2,25.41.21-.23,4.95,1.65,11,2.81s13.28,1.8,16.39,1.29a98.37,98.37,0,0,0,20.78-3.49"></path></clipPath><clipPath id="clip-path-43" transform="translate(-777.06 -1595.96)"><path class="cls-1" d="M1004.12,1723.89c-14.92-.68-17.6-14.52-20.76-27.85,0,0-9.6.33-13.25.28-4.91-.28-11.15-1.68-17.77-1.28a64.61,64.61,0,0,0-13.05,2c14.19,1.64,15.89,16.71,18.2,31.11.18-.19,4.16,1.94,9.77,2.89s12.57,1,15.73-.13c9.27-2.57,21-6.85,21.13-7"></path></clipPath><clipPath id="clip-path-45" transform="translate(-777.06 -1595.96)"><path class="cls-1" d="M869.47,1644.94c2.24-11.56-2.9-22.28-15.48-24.73s-21.34,5.57-23.58,17.13c-1.74,9,4,13.37,7.87,21.89.78,1.69-1.41,7.29-1.41,7.29l15.74,3.06s.06-6,1.41-7.29c6.8-6.44,13.71-8.34,15.45-17.35"></path></clipPath><clipPath id="clip-path-46" transform="translate(-777.06 -1595.96)"><rect class="cls-2" x="204.01" width="1308.13" height="2150.23"></rect></clipPath><clipPath id="clip-path-47" transform="translate(-777.06 -1595.96)"><path class="cls-1" d="M836.41,1666.71l-.4,2.2a6.77,6.77,0,0,0,5.15,7.89l3.17.66a6.42,6.42,0,0,0,7.55-5.29l.4-2.19Z"></path></clipPath><clipPath id="clip-path-49" transform="translate(-777.06 -1595.96)"><polygon class="cls-1" points="860.68 1643.15 859.27 1640.37 856.11 1643.15 854.24 1639.4 851.08 1642.18 849.2 1638.44 846.05 1641.22 844.17 1637.47 841.84 1639.53 840.73 1638.29 844.7 1634.78 846.57 1638.53 849.73 1635.75 851.61 1639.5 854.76 1636.72 856.64 1640.47 859.8 1637.69 862.17 1642.41 860.68 1643.15"></polygon></clipPath><clipPath id="clip-path-51" transform="translate(-777.06 -1595.96)"><polygon class="cls-1" points="843.44 1666.89 841.88 1666.58 844.37 1653.38 842.9 1642.33 844.48 1642.12 845.98 1653.43 843.44 1666.89"></polygon></clipPath><clipPath id="clip-path-53" transform="translate(-777.06 -1595.96)"><polygon class="cls-1" points="848.25 1669.12 846.68 1668.8 849.2 1654.92 854.71 1644.69 856.11 1645.52 850.72 1655.51 848.25 1669.12"></polygon></clipPath><clipPath id="clip-path-55" transform="translate(-777.06 -1595.96)"><polygon class="cls-1" points="868.1 1617.71 866.78 1616.77 873.78 1607.98 875.09 1608.92 868.1 1617.71"></polygon></clipPath><clipPath id="clip-path-57" transform="translate(-777.06 -1595.96)"><polygon class="cls-1" points="857.93 1613.3 856.32 1612.81 860.03 1602.12 861.64 1602.61 857.93 1613.3"></polygon></clipPath><clipPath id="clip-path-59" transform="translate(-777.06 -1595.96)"><rect class="cls-2" x="843.87" y="1601.02" width="1.74" height="11.8" transform="translate(-173.71 104.07) rotate(-6.39)"></rect></clipPath></defs><title>idea</title><g id="Layer_2" data-name="Layer 2"><g id="Layer_1-2" data-name="Layer 1"><g class="cls-3"><g class="cls-4"><rect class="cls-5" y="94" width="56.93" height="63.16"></rect></g></g><g class="cls-6"><g class="cls-4"><rect class="cls-7" x="7.01" y="101.47" width="23.92" height="20.25"></rect></g></g><g class="cls-8"><g class="cls-4"><rect class="cls-9" x="9.89" y="94" width="25.36" height="20.96"></rect></g></g><g class="cls-10"><g class="cls-4"><rect class="cls-11" x="19.18" y="128.76" width="21.37" height="15.39"></rect></g></g><g class="cls-12"><g class="cls-4"><rect class="cls-11" x="14.05" y="109.52" width="32.09" height="18.64"></rect></g></g><g class="cls-13"><g class="cls-4"><rect class="cls-11" x="11.05" y="117.52" width="32.09" height="18.64"></rect></g></g><g class="cls-14"><g class="cls-4"><rect class="cls-15" x="1022.58" y="1924.23" width="30.4" height="21.51" transform="translate(-1542.42 -913.92) rotate(-27)"></rect></g></g><g class="cls-16"><g class="cls-4"><rect class="cls-15" x="950.1" y="1951.88" width="40.34" height="23.25" transform="translate(-1562.73 -941.46) rotate(-27)"></rect></g></g><g class="cls-17"><g class="cls-4"><rect class="cls-18" x="872.07" y="1679.82" width="46.68" height="58.78" transform="translate(-1455.44 -1003.16) rotate(-27)"></rect></g></g><g class="cls-19"><g class="cls-4"><rect class="cls-18" x="916.53" y="1769.37" width="57.78" height="23.17" transform="translate(-1482.56 -972.64) rotate(-27)"></rect></g></g><g class="cls-20"><g class="cls-4"><rect class="cls-7" x="988.62" y="1842.66" width="43.75" height="107.15" transform="translate(-1527.8 -930.53) rotate(-27)"></rect></g></g><g class="cls-21"><g class="cls-4"><rect class="cls-18" x="811.26" y="1729.1" width="37.01" height="51.37" transform="translate(-1483.29 -1027.99) rotate(-27)"></rect></g></g><g class="cls-22"><g class="cls-4"><rect class="cls-23" x="916.01" y="1707.89" width="46.88" height="84.03" transform="translate(-1469.11 -978.73) rotate(-27)"></rect></g></g><g class="cls-24"><g class="cls-4"><rect class="cls-7" x="924.43" y="1785.3" width="65.3" height="139.12" transform="translate(-1514.84 -959.29) rotate(-27)"></rect></g></g><g class="cls-25"><g class="cls-4"><rect class="cls-7" x="901.25" y="1788.5" width="63.82" height="122.1" transform="translate(-1515.04 -970.72) rotate(-27)"></rect></g></g><g class="cls-26"><g class="cls-4"><rect class="cls-7" x="935.3" y="1865.65" width="34.23" height="105.49" transform="translate(-1544.19 -954.49) rotate(-27)"></rect></g></g><g class="cls-27"><g class="cls-4"><rect class="cls-28" x="876.85" y="1717.02" width="72" height="123.08" transform="translate(-1485.02 -987.68) rotate(-27)"></rect></g></g><g class="cls-29"><g class="cls-4"><rect class="cls-28" x="825.46" y="1737.08" width="80.8" height="33.68" transform="translate(-1478.96 -1011.7) rotate(-27)"></rect></g></g><g class="cls-30"><g class="cls-4"><rect class="cls-15" x="874.62" y="1673.42" width="42.2" height="51.24" transform="translate(-1450.78 -1004.13) rotate(-27)"></rect></g></g><g class="cls-31"><g class="cls-4"><rect class="cls-18" x="795.98" y="1722.71" width="24.54" height="32.19" transform="translate(-1478.37 -1039.5) rotate(-27)"></rect></g></g><g class="cls-32"><g class="cls-4"><rect class="cls-9" x="948.6" y="1674.49" width="44" height="79" transform="translate(-1772.56 -1.46) rotate(-57)"></rect></g></g><g class="cls-33"><g class="cls-4"><rect class="cls-5" x="945.08" y="1672.68" width="51" height="79" transform="translate(-1771.06 -2.3) rotate(-57)"></rect></g></g><g class="cls-34"><g class="cls-35"><rect class="cls-36" x="826.01" y="1615.15" width="49.05" height="59.05" transform="translate(-944.32 -1498.05) rotate(-6)"></rect></g></g><g class="cls-37"><g class="cls-35"><rect class="cls-15" x="831.54" y="1661.38" width="25.44" height="20.89" transform="translate(-947.19 -1498.55) rotate(-6)"></rect></g></g><g class="cls-38"><g class="cls-35"><rect class="cls-39" x="836.33" y="1629.57" width="29.98" height="19.08" transform="translate(-943.73 -1497.99) rotate(-6)"></rect></g></g><g class="cls-40"><g class="cls-35"><rect class="cls-39" x="836.09" y="1637.76" width="14.53" height="33.61" transform="translate(-945.39 -1498.74) rotate(-6)"></rect></g></g><g class="cls-41"><g class="cls-35"><rect class="cls-39" x="840.92" y="1640.57" width="20.89" height="32.7" transform="translate(-945.6 -1497.89) rotate(-6)"></rect></g></g><g class="cls-42"><g class="cls-35"><rect class="cls-36" x="861.85" y="1603.76" width="18.17" height="18.17" transform="translate(-940.88 -1496.09) rotate(-6)"></rect></g></g><g class="cls-43"><g class="cls-35"><rect class="cls-36" x="851.26" y="1597.71" width="15.44" height="19.99" transform="translate(-940.41 -1497.37) rotate(-6)"></rect></g></g><g class="cls-44"><g class="cls-35"><rect class="cls-36" x="839.29" y="1596.47" width="10.9" height="20.89" transform="translate(-940.41 -1498.86) rotate(-6)"></rect></g></g></g></g></svg> 