<?xml version="1.0" encoding="UTF-8"?> <svg xmlns="http://www.w3.org/2000/svg" xmlns:xlink="http://www.w3.org/1999/xlink" viewBox="0 0 316.81 308.78"><defs><style>.cls-1,.cls-2{fill:none;}.cls-1{clip-rule:evenodd;}.cls-3{clip-path:url(#clip-path);}.cls-4{clip-path:url(#clip-path-2);}.cls-5{fill:#121f55;}.cls-6{clip-path:url(#clip-path-3);}.cls-7{fill:#76cff3;}.cls-8{clip-path:url(#clip-path-5);}.cls-9{fill:#49bfef;}.cls-10{clip-path:url(#clip-path-7);}.cls-11{fill:#e9d6b8;}.cls-12{clip-path:url(#clip-path-9);}.cls-13{fill:#f39a57;}.cls-14{clip-path:url(#clip-path-11);}.cls-15{clip-path:url(#clip-path-13);}.cls-16{clip-path:url(#clip-path-15);}.cls-17{clip-path:url(#clip-path-17);}.cls-18{clip-path:url(#clip-path-19);}.cls-19{clip-path:url(#clip-path-21);}.cls-20{clip-path:url(#clip-path-23);}.cls-21{clip-path:url(#clip-path-25);}.cls-22{clip-path:url(#clip-path-27);}.cls-23{clip-path:url(#clip-path-29);}.cls-24{clip-path:url(#clip-path-31);}.cls-25{clip-path:url(#clip-path-33);}.cls-26{fill:#163f59;}.cls-27{clip-path:url(#clip-path-35);}.cls-28{clip-path:url(#clip-path-37);}.cls-29{clip-path:url(#clip-path-39);}.cls-30{clip-path:url(#clip-path-41);}.cls-31{clip-path:url(#clip-path-43);}.cls-32{clip-path:url(#clip-path-45);}.cls-33{clip-path:url(#clip-path-47);}.cls-34{clip-path:url(#clip-path-49);}.cls-35{clip-path:url(#clip-path-51);}.cls-36{clip-path:url(#clip-path-53);}.cls-37{fill:#d1effb;}.cls-38{clip-path:url(#clip-path-55);}.cls-39{clip-path:url(#clip-path-57);}.cls-40{fill:#b6c2c9;}.cls-41{clip-path:url(#clip-path-59);}.cls-42{clip-path:url(#clip-path-61);}.cls-43{clip-path:url(#clip-path-63);}.cls-44{fill:#cdd5d8;}.cls-45{clip-path:url(#clip-path-65);}.cls-46{fill:#b7bec0;}.cls-47{clip-path:url(#clip-path-67);}.cls-48{clip-path:url(#clip-path-69);}.cls-49{clip-path:url(#clip-path-71);}.cls-50{clip-path:url(#clip-path-73);}.cls-51{clip-path:url(#clip-path-75);}.cls-52{clip-path:url(#clip-path-77);}.cls-53{clip-path:url(#clip-path-79);}.cls-54{clip-path:url(#clip-path-81);}.cls-55{clip-path:url(#clip-path-83);}.cls-56{clip-path:url(#clip-path-85);}.cls-57{fill:#eaf8fe;}.cls-58{clip-path:url(#clip-path-87);}.cls-59{fill:#e5e8ec;}.cls-60{clip-path:url(#clip-path-89);}.cls-61{fill:#a4dff7;}.cls-62{clip-path:url(#clip-path-91);}.cls-63{fill:#b0bfde;}.cls-64{clip-path:url(#clip-path-93);}.cls-65{fill:#194866;}.cls-66{clip-path:url(#clip-path-95);}.cls-67{clip-path:url(#clip-path-97);}.cls-68{clip-path:url(#clip-path-99);}.cls-69{clip-path:url(#clip-path-101);}.cls-70{clip-path:url(#clip-path-103);}.cls-71{clip-path:url(#clip-path-105);}.cls-72{clip-path:url(#clip-path-107);}.cls-73{clip-path:url(#clip-path-109);}.cls-74{clip-path:url(#clip-path-111);}.cls-75{clip-path:url(#clip-path-113);}.cls-76{clip-path:url(#clip-path-115);}.cls-77{clip-path:url(#clip-path-117);}.cls-78{clip-path:url(#clip-path-119);}.cls-79{clip-path:url(#clip-path-121);}.cls-80{clip-path:url(#clip-path-123);}.cls-81{clip-path:url(#clip-path-125);}.cls-82{clip-path:url(#clip-path-127);}.cls-83{clip-path:url(#clip-path-129);}.cls-84{clip-path:url(#clip-path-131);}.cls-85{clip-path:url(#clip-path-133);}.cls-86{clip-path:url(#clip-path-135);}.cls-87{clip-path:url(#clip-path-137);}.cls-88{clip-path:url(#clip-path-139);}.cls-89{clip-path:url(#clip-path-141);}.cls-90{clip-path:url(#clip-path-143);}.cls-91{clip-path:url(#clip-path-145);}.cls-92{clip-path:url(#clip-path-147);}.cls-93{clip-path:url(#clip-path-149);}.cls-94{clip-path:url(#clip-path-151);}.cls-95{clip-path:url(#clip-path-153);}.cls-96{clip-path:url(#clip-path-155);}.cls-97{clip-path:url(#clip-path-157);}.cls-98{clip-path:url(#clip-path-159);}.cls-99{clip-path:url(#clip-path-161);}.cls-100{clip-path:url(#clip-path-163);}.cls-101{clip-path:url(#clip-path-165);}.cls-102{fill:#f6b381;}.cls-103{clip-path:url(#clip-path-167);}.cls-104{clip-path:url(#clip-path-169);}.cls-105{fill:#cdd5d7;}</style><clipPath id="clip-path" transform="translate(-693.69 -729.42)"><path class="cls-1" d="M859.5,1014.43a23,23,0,0,0,.85,5.05s7.28.4,9.2-1.69a15.59,15.59,0,0,0,1.82-4c.11-.3.09-1.9.19-2.2.18-.55.48.21.63-.28a18.44,18.44,0,0,0,.65-2.38c-1.13-9.3-2.63-12.77-2.63-12.77s-6.91-4.1-7.26.12c-.82,9.94-3.16,14.89-3.45,18.14"></path></clipPath><clipPath id="clip-path-2" transform="translate(-693.69 -729.42)"><rect class="cls-2" width="1440" height="2367"></rect></clipPath><clipPath id="clip-path-3" transform="translate(-693.69 -729.42)"><path class="cls-1" d="M877,798.62s8.66,4.66-4.1,29.55S854.71,849,854.71,849l-7.16-1.8-11.42-18.63,8.49-5.43,1.43.84a3.74,3.74,0,0,0,2.56-2.28c.49-1.77,5.16-8.79,10.15-23.79,2.3-6.92,16.53-.19,18.19.71"></path></clipPath><clipPath id="clip-path-5" transform="translate(-693.69 -729.42)"><path class="cls-1" d="M877,798.62c-1.28-.7-7-.7-6.19-.25,0,0,8.66,4.65-4.11,29.55-7.12,13.89-11.94,18.76-14.81,20.36l2.87.72s5.37,4.07,18.14-20.83,4.1-29.55,4.1-29.55"></path></clipPath><clipPath id="clip-path-7" transform="translate(-693.69 -729.42)"><path class="cls-1" d="M838.07,829.17s-19.46,6.49-28.13-13.09c-2.58-5.82-2.06.51-1.09,6.6s10.2,20.94,22.82,23.76,17.6,2.84,20.65-1.21-14.25-16.06-14.25-16.06"></path></clipPath><clipPath id="clip-path-9" transform="translate(-693.69 -729.42)"><path class="cls-1" d="M862.6,999.55s9.57-.53,11.84-4.89c5.23-10,6.54-29.66,6.62-40.85a114.59,114.59,0,0,0-2.79-27.16l-17.18-5.29Z"></path></clipPath><clipPath id="clip-path-11" transform="translate(-693.69 -729.42)"><path class="cls-1" d="M930.17,1022.91a22.78,22.78,0,0,1-1,5s-7.29.24-9.16-1.89a15.54,15.54,0,0,1-1.73-4c-.1-.3-.05-1.9-.14-2.2-.17-.55-.48.2-.63-.29a18.45,18.45,0,0,1-.59-2.4c1.33-9.27,2.9-12.71,2.9-12.71s7-3.95,7.26.28c.6,10,2.83,15,3,18.21"></path></clipPath><clipPath id="clip-path-13" transform="translate(-693.69 -729.42)"><path class="cls-1" d="M916.43,1010.68s9.57-.54,11.84-4.89c5.23-10,6.54-29.66,6.62-40.85a114.59,114.59,0,0,0-2.79-27.16l-17.18-5.29Z"></path></clipPath><clipPath id="clip-path-15" transform="translate(-693.69 -729.42)"><path class="cls-1" d="M888.79,853.19,861.1,921.3,872.4,935a105.92,105.92,0,0,0,24.42-33.3c3.94-8.67,12-28.41,9.71-37.11-3.1-11.78-17.74-11.39-17.74-11.39"></path></clipPath><clipPath id="clip-path-17" transform="translate(-693.69 -729.42)"><path class="cls-1" d="M915.39,853.42l16.71,84.36-16.83,9.83s-5-17.62-11.49-44.28c-3.23-13.23-18.77-32-15.95-40.54,3.83-11.57,27.56-9.37,27.56-9.37"></path></clipPath><clipPath id="clip-path-19" transform="translate(-693.69 -729.42)"><path class="cls-1" d="M882.33,867.69l34-9.87-2.5-50.18s-.92-30.56-17.9-24.95-36.39,12.48-36.39,12.48-7.38,28.46,22.78,72.52"></path></clipPath><clipPath id="clip-path-21" transform="translate(-693.69 -729.42)"><path class="cls-1" d="M959.82,804.54l26.23-21s3.77.82,1.74,2.5c-.24.21-1-.84-1.71.45-2.93,5.2-7.5,17.45-12,21.94a75.87,75.87,0,0,1-12.73,10.09Z"></path></clipPath><clipPath id="clip-path-23" transform="translate(-693.69 -729.42)"><path class="cls-1" d="M854.21,827.34l-4.12-3.66-1.74-1.37a4,4,0,0,1-2.3,1.67l3.58,2.15,3.76,3.3,3.52,5.83Z"></path></clipPath><clipPath id="clip-path-25" transform="translate(-693.69 -729.42)"><path class="cls-1" d="M924.33,790.07l33.57,12.16,1,2.55,2.26-1.38,2.32,14.47-11.1,6.2L906.8,806.6s-9.53-6.65-10.94-21.2c-1-10.54,25.68,3.79,28.47,4.67"></path></clipPath><clipPath id="clip-path-27" transform="translate(-693.69 -729.42)"><path class="cls-1" d="M955.62,818.65s2-9.83,2.83-15l.42,1.11,2.26-1.38.76,5,.07,7.28-2.71,1.1-.5-2.13Z"></path></clipPath><clipPath id="clip-path-29" transform="translate(-693.69 -729.42)"><path class="cls-1" d="M885.87,779.08a37.28,37.28,0,0,1,.42,6.63c-.22,2.85-8.63,9.39-10,10.26s-2.25-7.52-2.87-9.28c-.47-1.34.54-1.23-1.19-2.79Z"></path></clipPath><clipPath id="clip-path-31" transform="translate(-693.69 -729.42)"><path class="cls-1" d="M868.21,780.92a2.93,2.93,0,0,0,3.41,2.36l13-2.38a2.92,2.92,0,0,0,2.36-3.41l-3.52-19.23A2.94,2.94,0,0,0,880,755.9l-13,2.38a2.94,2.94,0,0,0-2.36,3.41Z"></path></clipPath><clipPath id="clip-path-33" transform="translate(-693.69 -729.42)"><path class="cls-1" d="M865.39,765.66a11.24,11.24,0,0,1-2.61-2.62,4.39,4.39,0,0,1,1.19-3.95c1.28-1.1,2.77.24,2.77.24s-2.07,1.7-2.1,2.21.75,4.12.75,4.12"></path></clipPath><clipPath id="clip-path-35" transform="translate(-693.69 -729.42)"><path class="cls-1" d="M886.34,766.67s.61-7.75-.14-9.85-1.28-3.55-4-3.31c-4,.37-3.92,1.22-6.06.37s-6.13-3.12-7.38-3.19c-2.07-.11-5,1.11-4.49,4.86a4.18,4.18,0,0,1-1.13,3.85c.22.31,1,.49,2.37.89,3.94,1.15,6.17,1.11,8.8-.12s7.49-3.73,8.47-1.79,1.88,8.22,2.2,8.66.91.08,1.32-.37"></path></clipPath><clipPath id="clip-path-37" transform="translate(-693.69 -729.42)"><rect class="cls-2" x="882.81" y="766.61" width="4.81" height="7.17" rx="0.98" transform="translate(-124.1 171.78) rotate(-10.36)"></rect></clipPath><clipPath id="clip-path-39" transform="translate(-693.69 -729.42)"><path class="cls-1" d="M866.59,776.25a1,1,0,0,0,1.14.79l2.8-.51a1,1,0,0,0,.79-1.15l-.94-5.12a1,1,0,0,0-1.14-.79l-2.81.52a1,1,0,0,0-.78,1.13Z"></path></clipPath><clipPath id="clip-path-41" transform="translate(-693.69 -729.42)"><path class="cls-1" d="M885.41,768.59s1.39,7.57,1.85,10.09c.42,2.28.42,7.46-12.47,9.82-7.63,1.39-8.38-4.27-8.72-6.11-.25-1.4.57-5.9,1.23-6.85,0,0,.57,3.13.57,3.13a6.19,6.19,0,0,1,4.65-4c5.86-1.07,7.81,2.11,10.38,1.58,2-.41,2.88-3.92,2.51-7.66"></path></clipPath><clipPath id="clip-path-43" transform="translate(-693.69 -729.42)"><path class="cls-1" d="M875.84,779.2l-4,.73a1,1,0,0,1-1.14-.79l-.1-.56,5.93-1.08.1.56a1,1,0,0,1-.79,1.14"></path></clipPath><clipPath id="clip-path-45" transform="translate(-693.69 -729.42)"><path class="cls-1" d="M811.43,819.36s-.36-6.83-1.85-8-7.22-5.26-7.22-5.26l-1.54-.9s-1.8,1.21,2.07,3.89,1.36,2.44,1.36,2.44l-4.32-1.06-5.37-.86-2.35-.71s-1.31-.5-1.71-.34c-1.14.46-.35,1.23-.35,1.23l9,3.54-9-.93s-1.16.08-1.32.71.23.65.23.65l10.06,3.57-4.67.07s-1.13.11-1.31.71-.27.82-.27.82L811,821.25Z"></path></clipPath><clipPath id="clip-path-47" transform="translate(-693.69 -729.42)"><path class="cls-1" d="M798.46,814.91l-6.35-.26a4.8,4.8,0,0,0-2.12.1.88.88,0,0,0-.49,1.15l9.58,1.39Z"></path></clipPath><clipPath id="clip-path-49" transform="translate(-693.69 -729.42)"><path class="cls-1" d="M983.51,788.22s-3.52-5.87-3-7.71,3-8.39,3-8.39l.78-1.61s2.17,0,.46,4.39.23,2.77.23,2.77l3-3.29,4-3.72,1.55-1.9s.81-1.15,1.22-1.24c1.21-.26,1,.83,1,.83l-5.44,7.94,6.94-5.8s1-.58,1.48-.15.17.67.17.67l-6.33,8.58,3.91-2.55s1-.54,1.48-.15.68.54.68.54L985,789.52Z"></path></clipPath><clipPath id="clip-path-51" transform="translate(-693.69 -729.42)"><path class="cls-1" d="M882.76,897.11l0-.05-.17-1.63-67.47,5.82.14,1.63s0,0,0,0l.2.29c1,1.34,2.56,1.46,4.35,1.31l58.72-5.07c1.78-.15,3.31-.54,4.06-2Z"></path></clipPath><clipPath id="clip-path-53" transform="translate(-693.69 -729.42)"><path class="cls-1" d="M866.52,898.79a.08.08,0,0,0,0,.05l.19.23a2.76,2.76,0,0,0,1.06.74l10.26-.88c1.72-.15,3.19-.48,3.93-1.7l.14-.26,0,0-.09-.81-15.63,1.35Z"></path></clipPath><clipPath id="clip-path-55" transform="translate(-693.69 -729.42)"><rect class="cls-2" x="823.55" y="899.45" width="33.84" height="1.16" transform="translate(-74.25 75.57) rotate(-4.93)"></rect></clipPath><clipPath id="clip-path-57" transform="translate(-693.69 -729.42)"><path class="cls-1" d="M837.7,881.75a2.29,2.29,0,0,1-2,3.26,4.28,4.28,0,0,1-4.14-2.74,2.29,2.29,0,0,1,2-3.26,4.29,4.29,0,0,1,4.14,2.74"></path></clipPath><clipPath id="clip-path-59" transform="translate(-693.69 -729.42)"><path class="cls-1" d="M866,896.81,854.36,864.4a2.21,2.21,0,0,0-2.13-1.41l-47.35,4.08a1.19,1.19,0,0,0-1,1.69l11.61,32.4Z"></path></clipPath><clipPath id="clip-path-61" transform="translate(-693.69 -729.42)"><path class="cls-1" d="M991.78,777.28l5.12-3.77a4.71,4.71,0,0,1,1.82-1.1.88.88,0,0,1,1,.67l-7.16,6.51Z"></path></clipPath><clipPath id="clip-path-63" transform="translate(-693.69 -729.42)"><rect class="cls-2" x="720.41" y="744.61" width="8.65" height="9.27" transform="translate(-254.02 390.59) rotate(-25.83)"></rect></clipPath><clipPath id="clip-path-65" transform="translate(-693.69 -729.42)"><rect class="cls-2" x="719.34" y="744.85" width="8.65" height="4.33" transform="translate(-253.09 389.69) rotate(-25.82)"></rect></clipPath><clipPath id="clip-path-67" transform="translate(-693.69 -729.42)"><path class="cls-1" d="M730.29,742.61a1.71,1.71,0,0,1-.8,2.27l-11.12,5.38a1.7,1.7,0,0,1-2.27-.78l-3.5-7.24a1.7,1.7,0,0,1,.79-2.27l11.13-5.38a1.7,1.7,0,0,1,2.27.79Z"></path></clipPath><clipPath id="clip-path-69" transform="translate(-693.69 -729.42)"><rect class="cls-2" x="705.18" y="762.53" width="5.39" height="5.77" transform="translate(-323.07 920.66) rotate(-55.8)"></rect></clipPath><clipPath id="clip-path-71" transform="translate(-693.69 -729.42)"><polygon class="cls-1" points="709.23 763.08 706.2 767.54 703.97 766.02 707 761.57 709.23 763.08"></polygon></clipPath><clipPath id="clip-path-73" transform="translate(-693.69 -729.42)"><path class="cls-1" d="M708.8,760.12a1,1,0,0,1,.28,1.47L704.76,768a1.06,1.06,0,0,1-1.47.28l-4.14-2.81a1.06,1.06,0,0,1-.28-1.47l4.33-6.36a1.06,1.06,0,0,1,1.46-.29Z"></path></clipPath><clipPath id="clip-path-75" transform="translate(-693.69 -729.42)"><rect class="cls-2" x="744.63" y="743.54" width="5.77" height="5.38" transform="translate(-51.3 1437.27) rotate(-85.81)"></rect></clipPath><clipPath id="clip-path-77" transform="translate(-693.69 -729.42)"><rect class="cls-2" x="746.29" y="742" width="2.69" height="5.38" transform="translate(-49.64 1435.98) rotate(-85.81)"></rect></clipPath><clipPath id="clip-path-79" transform="translate(-693.69 -729.42)"><path class="cls-1" d="M742.79,743.67a1.06,1.06,0,0,0,1,1.13l7.68.56a1.06,1.06,0,0,0,1.12-1l.37-5a1.06,1.06,0,0,0-1-1.13l-7.67-.56a1.06,1.06,0,0,0-1.13,1Z"></path></clipPath><clipPath id="clip-path-81" transform="translate(-693.69 -729.42)"><path class="cls-1" d="M777.36,768A39.18,39.18,0,1,1,725,749.84,39.18,39.18,0,0,1,777.36,768"></path></clipPath><clipPath id="clip-path-83" transform="translate(-693.69 -729.42)"><path class="cls-1" d="M759.16,820.37A39.18,39.18,0,1,1,725,749.84Z"></path></clipPath><clipPath id="clip-path-85" transform="translate(-693.69 -729.42)"><path class="cls-1" d="M771.93,770.66a33.15,33.15,0,1,1-44.27-15.39,33.15,33.15,0,0,1,44.27,15.39"></path></clipPath><clipPath id="clip-path-87" transform="translate(-693.69 -729.42)"><path class="cls-1" d="M715.44,799.72a33.14,33.14,0,0,1,30.08-47.58,33.14,33.14,0,1,0-3.67,66.11,33.11,33.11,0,0,1-26.41-18.53"></path></clipPath><clipPath id="clip-path-89" transform="translate(-693.69 -729.42)"><path class="cls-1" d="M752.11,753.51a33,33,0,0,0-24.45,1.76L742.1,785.1Z"></path></clipPath><clipPath id="clip-path-91" transform="translate(-693.69 -729.42)"><path class="cls-1" d="M728.38,756.77c.8-.47,1.61-.92,2.45-1.32a33.14,33.14,0,0,1,14.67-3.32h-.08l-.6-.06L744,752l-.64,0-1.21,0h-.63l-.79,0-.65,0-.93.06-.73.08c-.34,0-.68.08-1,.13l-.57.08-1,.17-.44.08-1.34.31-.44.11-1,.3-.4.12c-.46.14-.92.3-1.38.46l-.27.11-1.16.45-.38.16c-.46.2-.92.4-1.38.63h0Z"></path></clipPath><clipPath id="clip-path-93" transform="translate(-693.69 -729.42)"><rect class="cls-2" x="729.99" y="758.62" width="0.71" height="4.03" transform="translate(-259 395.71) rotate(-25.92)"></rect></clipPath><clipPath id="clip-path-95" transform="translate(-693.69 -729.42)"><polygon class="cls-1" points="727.74 764.48 727.16 764.89 724.81 761.62 725.38 761.21 727.74 764.48"></polygon></clipPath><clipPath id="clip-path-97" transform="translate(-693.69 -729.42)"><polygon class="cls-1" points="724.38 767.28 723.88 767.79 720.99 764.98 721.49 764.47 724.38 767.28"></polygon></clipPath><clipPath id="clip-path-99" transform="translate(-693.69 -729.42)"><rect class="cls-2" x="719.33" y="767.78" width="0.71" height="4.03" transform="matrix(0.56, -0.83, 0.83, 0.56, -321.41, 933.02)"></rect></clipPath><clipPath id="clip-path-101" transform="translate(-693.69 -729.42)"><polygon class="cls-1" points="719.35 774.41 719.06 775.07 715.38 773.41 715.67 772.77 719.35 774.41"></polygon></clipPath><clipPath id="clip-path-103" transform="translate(-693.69 -729.42)"><polygon class="cls-1" points="717.84 778.53 717.67 779.22 713.76 778.23 713.93 777.54 717.84 778.53"></polygon></clipPath><clipPath id="clip-path-105" transform="translate(-693.69 -729.42)"><polygon class="cls-1" points="717.07 782.84 717.02 783.55 713 783.26 713.05 782.55 717.07 782.84"></polygon></clipPath><clipPath id="clip-path-107" transform="translate(-693.69 -729.42)"><rect class="cls-2" x="713.07" y="787.43" width="4.03" height="0.71" transform="translate(-76.03 76.39) rotate(-5.81)"></rect></clipPath><clipPath id="clip-path-109" transform="translate(-693.69 -729.42)"><rect class="cls-2" x="713.94" y="792.08" width="4.03" height="0.71" transform="translate(-187.08 222.29) rotate(-15.64)"></rect></clipPath><clipPath id="clip-path-111" transform="translate(-693.69 -729.42)"><rect class="cls-2" x="715.62" y="796.5" width="4.03" height="0.71" transform="translate(-275.57 392.47) rotate(-25.84)"></rect></clipPath><clipPath id="clip-path-113" transform="translate(-693.69 -729.42)"><rect class="cls-2" x="718.03" y="800.57" width="4.03" height="0.71" transform="translate(-332.87 574.4) rotate(-35.9)"></rect></clipPath><clipPath id="clip-path-115" transform="translate(-693.69 -729.42)"><rect class="cls-2" x="721.11" y="804.16" width="4.03" height="0.71" transform="translate(-357.81 762.97) rotate(-45.85)"></rect></clipPath><clipPath id="clip-path-117" transform="translate(-693.69 -729.42)"><rect class="cls-2" x="724.77" y="807.16" width="4.03" height="0.71" transform="translate(-348.74 960.96) rotate(-56.13)"></rect></clipPath><clipPath id="clip-path-119" transform="translate(-693.69 -729.42)"><polygon class="cls-1" points="731.42 807.85 732.06 808.14 730.41 811.82 729.76 811.53 731.42 807.85"></polygon></clipPath><clipPath id="clip-path-121" transform="translate(-693.69 -729.42)"><polygon class="cls-1" points="735.52 809.36 736.21 809.53 735.23 813.45 734.54 813.27 735.52 809.36"></polygon></clipPath><clipPath id="clip-path-123" transform="translate(-693.69 -729.42)"><rect class="cls-2" x="738.03" y="811.81" width="4.03" height="0.71" transform="translate(-124.81 1489.89) rotate(-85.74)"></rect></clipPath><clipPath id="clip-path-125" transform="translate(-693.69 -729.42)"><rect class="cls-2" x="744.42" y="810.1" width="0.71" height="4.03" transform="translate(-78.54 79.74) rotate(-5.82)"></rect></clipPath><clipPath id="clip-path-127" transform="translate(-693.69 -729.42)"><rect class="cls-2" x="749.06" y="809.22" width="0.72" height="4.03" transform="translate(-192.26 234.19) rotate(-15.77)"></rect></clipPath><clipPath id="clip-path-129" transform="translate(-693.69 -729.42)"><rect class="cls-2" x="753.5" y="807.55" width="0.71" height="4.03" transform="translate(-277.53 409.64) rotate(-25.85)"></rect></clipPath><clipPath id="clip-path-131" transform="translate(-693.69 -729.42)"><rect class="cls-2" x="757.56" y="805.14" width="0.71" height="4.03" transform="translate(-328.74 594.76) rotate(-35.74)"></rect></clipPath><clipPath id="clip-path-133" transform="translate(-693.69 -729.42)"><polygon class="cls-1" points="759.82 802.93 760.31 802.41 763.2 805.22 762.71 805.74 759.82 802.93"></polygon></clipPath><clipPath id="clip-path-135" transform="translate(-693.69 -729.42)"><rect class="cls-2" x="764.15" y="798.4" width="0.71" height="4.03" transform="translate(-327.02 984) rotate(-55.86)"></rect></clipPath><clipPath id="clip-path-137" transform="translate(-693.69 -729.42)"><rect class="cls-2" x="766.47" y="794.27" width="0.71" height="4.03" transform="translate(-271.34 1176.16) rotate(-66.18)"></rect></clipPath><clipPath id="clip-path-139" transform="translate(-693.69 -729.42)"><rect class="cls-2" x="768.04" y="789.81" width="0.71" height="4.03" transform="translate(-187.28 1343.28) rotate(-75.85)"></rect></clipPath><clipPath id="clip-path-141" transform="translate(-693.69 -729.42)"><rect class="cls-2" x="768.81" y="785.14" width="0.71" height="4.03" transform="translate(-69.43 1499.89) rotate(-86.02)"></rect></clipPath><clipPath id="clip-path-143" transform="translate(-693.69 -729.42)"><rect class="cls-2" x="767.09" y="782.07" width="4.02" height="0.71" transform="translate(-74.73 81.25) rotate(-5.77)"></rect></clipPath><clipPath id="clip-path-145" transform="translate(-693.69 -729.42)"><polygon class="cls-1" points="766.39 778.67 766.2 777.98 770.07 776.88 770.26 777.57 766.39 778.67"></polygon></clipPath><clipPath id="clip-path-147" transform="translate(-693.69 -729.42)"><rect class="cls-2" x="764.55" y="772.99" width="4.03" height="0.72" transform="translate(-260.26 410.96) rotate(-25.81)"></rect></clipPath><clipPath id="clip-path-149" transform="translate(-693.69 -729.42)"><polygon class="cls-1" points="762.73 770.75 762.31 770.17 765.57 767.81 765.99 768.39 762.73 770.75"></polygon></clipPath><clipPath id="clip-path-151" transform="translate(-693.69 -729.42)"><rect class="cls-2" x="759.05" y="765.33" width="4.03" height="0.71" transform="translate(-318.38 782.8) rotate(-46.08)"></rect></clipPath><clipPath id="clip-path-153" transform="translate(-693.69 -729.42)"><polygon class="cls-1" points="756.57 764.56 755.98 764.16 758.24 760.83 758.84 761.23 756.57 764.56"></polygon></clipPath><clipPath id="clip-path-155" transform="translate(-693.69 -729.42)"><rect class="cls-2" x="751.27" y="760.02" width="4.03" height="0.71" transform="translate(-248.78 1136.51) rotate(-65.84)"></rect></clipPath><clipPath id="clip-path-157" transform="translate(-693.69 -729.42)"><polygon class="cls-1" points="748.67 760.85 747.97 760.68 748.97 756.76 749.65 756.95 748.67 760.85"></polygon></clipPath><clipPath id="clip-path-159" transform="translate(-693.69 -729.42)"><polygon class="cls-1" points="744.36 760.08 743.65 760.03 743.95 756 744.65 756.06 744.36 760.08"></polygon></clipPath><clipPath id="clip-path-161" transform="translate(-693.69 -729.42)"><polygon class="cls-1" points="739.98 760.06 739.27 760.13 738.86 756.12 739.57 756.05 739.98 760.06"></polygon></clipPath><clipPath id="clip-path-163" transform="translate(-693.69 -729.42)"><polygon class="cls-1" points="735.66 760.81 734.98 761 733.88 757.13 734.56 756.94 735.66 760.81"></polygon></clipPath><clipPath id="clip-path-165" transform="translate(-693.69 -729.42)"><path class="cls-1" d="M745.49,783.43a3.75,3.75,0,1,0-1.75,5,3.76,3.76,0,0,0,1.75-5m-2.61,3.23a1.77,1.77,0,1,1,.83-2.37,1.78,1.78,0,0,1-.83,2.37"></path></clipPath><clipPath id="clip-path-167" transform="translate(-693.69 -729.42)"><polygon class="cls-1" points="749.29 762.69 744.9 783.21 741.06 781.88 749.29 762.69"></polygon></clipPath><clipPath id="clip-path-169" transform="translate(-693.69 -729.42)"><path class="cls-1" d="M742.88,786.66a1.77,1.77,0,1,1,.83-2.37,1.78,1.78,0,0,1-.83,2.37"></path></clipPath></defs><title>on-demand</title><g id="Layer_2" data-name="Layer 2"><g id="Layer_1-2" data-name="Layer 1"><g class="cls-3"><g class="cls-4"><rect class="cls-5" x="850.01" y="990.69" width="29.92" height="33.14" transform="translate(-1073.57 -183.78) rotate(-29)"></rect></g></g><g class="cls-6"><g class="cls-4"><rect class="cls-7" x="830.64" y="793.6" width="60.75" height="55.05" transform="translate(-983.82 -209.04) rotate(-29)"></rect></g></g><g class="cls-8"><g class="cls-4"><rect class="cls-9" x="836.31" y="799.34" width="56.56" height="47.84" transform="translate(-984.41 -207.04) rotate(-29)"></rect></g></g><g class="cls-10"><g class="cls-4"><rect class="cls-11" x="809.31" y="800.92" width="39.33" height="59.49" transform="translate(-992.47 -223.38) rotate(-29)"></rect></g></g><g class="cls-12"><g class="cls-4"><rect class="cls-13" x="838.35" y="917.72" width="59.05" height="81.5" transform="translate(-1049.55 -188.5) rotate(-29)"></rect></g></g><g class="cls-14"><g class="cls-4"><rect class="cls-5" x="910.82" y="998.79" width="26.85" height="35.1" transform="translate(-1070.54 -153.91) rotate(-29)"></rect></g></g><g class="cls-15"><g class="cls-4"><rect class="cls-13" x="892.18" y="928.85" width="59.04" height="81.5" transform="translate(-1048.2 -161) rotate(-29)"></rect></g></g><g class="cls-16"><g class="cls-4"><rect class="cls-13" x="844.9" y="855.55" width="77.68" height="73.6" transform="translate(-1015.5 -189.09) rotate(-29)"></rect></g></g><g class="cls-17"><g class="cls-4"><rect class="cls-13" x="885.54" y="847" width="55.77" height="100.17" transform="translate(-1014.08 -174.11) rotate(-29)"></rect></g></g><g class="cls-18"><g class="cls-4"><rect class="cls-7" x="856.55" y="777.57" width="72.77" height="92.32" transform="translate(-981.09 -193.24) rotate(-29)"></rect></g></g><g class="cls-19"><g class="cls-4"><rect class="cls-11" x="949.37" y="786.4" width="49.91" height="28.63" transform="translate(-959.72 -156.66) rotate(-29)"></rect></g></g><g class="cls-20"><g class="cls-4"><rect class="cls-9" x="844.29" y="816.37" width="15.51" height="25.47" transform="translate(-988.82 -212.39) rotate(-29)"></rect></g></g><g class="cls-21"><g class="cls-4"><rect class="cls-7" x="899.52" y="763.46" width="61.15" height="73.4" transform="translate(-965 -178.18) rotate(-29)"></rect></g></g><g class="cls-22"><g class="cls-4"><rect class="cls-9" x="947.13" y="799.66" width="22.22" height="22.22" transform="translate(-966.61 -163.2) rotate(-29)"></rect></g></g><g class="cls-23"><g class="cls-4"><rect class="cls-11" x="866.84" y="775.33" width="26.97" height="22.53" transform="translate(-964.66 -204.01) rotate(-29)"></rect></g></g><g class="cls-24"><g class="cls-4"><rect class="cls-11" x="858.51" y="750.29" width="34.62" height="38.6" transform="translate(-956.98 -208.32) rotate(-29)"></rect></g></g><g class="cls-25"><g class="cls-4"><rect class="cls-26" x="857.61" y="753.8" width="15.26" height="16.48" transform="translate(-954.65 -214.4) rotate(-29)"></rect></g></g><g class="cls-27"><g class="cls-4"><rect class="cls-5" x="859.75" y="742.75" width="31.61" height="33.38" transform="translate(-952.09 -209.73) rotate(-29)"></rect></g></g><g class="cls-28"><g class="cls-4"><rect class="cls-11" x="877.05" y="761.29" width="16.32" height="17.81" transform="translate(-956.1 -203.7) rotate(-29)"></rect></g></g><g class="cls-29"><g class="cls-4"><rect class="cls-11" x="860.32" y="764.35" width="16.32" height="17.81" transform="translate(-959.68 -211.42) rotate(-29)"></rect></g></g><g class="cls-30"><g class="cls-4"><rect class="cls-5" x="860.33" y="766.08" width="34.34" height="26.68" transform="translate(-961.54 -206.28) rotate(-29)"></rect></g></g><g class="cls-31"><g class="cls-4"><rect class="cls-11" x="865.78" y="772.06" width="15.95" height="13.13" transform="translate(-961.62 -208.19) rotate(-29)"></rect></g></g><g class="cls-32"><g class="cls-4"><rect class="cls-11" x="785.97" y="799.39" width="29.35" height="31.07" transform="translate(-988.39 -239.09) rotate(-29)"></rect></g></g><g class="cls-33"><g class="cls-4"><rect class="cls-11" x="785.21" y="807.79" width="18.31" height="16.63" transform="translate(-989.75 -241.98) rotate(-29)"></rect></g></g><g class="cls-34"><g class="cls-4"><rect class="cls-11" x="973.91" y="763.63" width="32.07" height="26.91" transform="translate(-946.31 -152.05) rotate(-29)"></rect></g></g><g class="cls-35"><g class="cls-4"><rect class="cls-7" x="812.87" y="879.55" width="72.53" height="39.92" transform="translate(-1023.32 -204.97) rotate(-29)"></rect></g></g><g class="cls-36"><g class="cls-4"><rect class="cls-37" x="861.85" y="888.65" width="24.89" height="17.69" transform="translate(-1019.19 -193.03) rotate(-29)"></rect></g></g><g class="cls-38"><g class="cls-4"><rect class="cls-37" x="819.78" y="887.6" width="41.37" height="24.86" transform="matrix(0.87, -0.48, 0.48, 0.87, -1024.65, -209.11)"></rect></g></g><g class="cls-39"><g class="cls-4"><rect class="cls-40" x="826.78" y="873.62" width="15.71" height="16.77" transform="translate(-1016.65 -214.19) rotate(-29)"></rect></g></g><g class="cls-41"><g class="cls-4"><rect class="cls-7" x="803.72" y="849.42" width="61.87" height="65.75" transform="translate(-1016.78 -214.15) rotate(-29)"></rect></g></g><g class="cls-42"><g class="cls-4"><rect class="cls-11" x="986.18" y="769.09" width="19.46" height="13.42" transform="translate(-944.94 -149.32) rotate(-29)"></rect></g></g><g class="cls-43"><g class="cls-4"><rect class="cls-44" x="20.14" y="8.77" width="21.83" height="22.11"></rect></g></g><g class="cls-45"><g class="cls-4"><rect class="cls-46" x="20.14" y="8.77" width="19.67" height="17.66"></rect></g></g><g class="cls-47"><g class="cls-4"><rect class="cls-5" x="13.74" width="28.03" height="26.01"></rect></g></g><g class="cls-48"><g class="cls-4"><rect class="cls-44" x="5.28" y="27.15" width="17.81" height="17.7"></rect></g></g><g class="cls-49"><g class="cls-4"><rect class="cls-46" x="5.28" y="27.15" width="15.26" height="15.97"></rect></g></g><g class="cls-50"><g class="cls-4"><rect class="cls-5" y="22.7" width="20.58" height="21.29"></rect></g></g><g class="cls-51"><g class="cls-4"><rect class="cls-44" x="45.94" y="8.74" width="15.79" height="16.15"></rect></g></g><g class="cls-52"><g class="cls-4"><rect class="cls-46" x="46.16" y="8.74" width="15.56" height="13.08"></rect></g></g><g class="cls-53"><g class="cls-4"><rect class="cls-5" x="44.1" y="3.28" width="20.15" height="17.66"></rect></g></g><g class="cls-54"><g class="cls-4"><rect class="cls-5" x="4.22" y="11.5" width="88.37" height="88.37"></rect></g></g><g class="cls-55"><g class="cls-4"><rect class="cls-5" x="4.22" y="15.42" width="66.25" height="84.44"></rect></g></g><g class="cls-56"><g class="cls-4"><rect class="cls-57" x="10.25" y="17.53" width="76.31" height="76.31"></rect></g></g><g class="cls-58"><g class="cls-4"><rect class="cls-59" x="10.25" y="17.53" width="46.58" height="76.3"></rect></g></g><g class="cls-60"><g class="cls-4"><rect class="cls-61" x="28.97" y="17.53" width="34.45" height="43.15"></rect></g></g><g class="cls-62"><g class="cls-4"><rect class="cls-63" x="28.97" y="17.54" width="27.84" height="14.81"></rect></g></g><g class="cls-64"><g class="cls-4"><rect class="cls-65" x="30.46" y="24.25" width="12.4" height="13.94"></rect></g></g><g class="cls-66"><g class="cls-4"><rect class="cls-65" x="26.12" y="26.79" width="12.93" height="13.68"></rect></g></g><g class="cls-67"><g class="cls-4"><rect class="cls-65" x="22.3" y="30.05" width="13.39" height="13.32"></rect></g></g><g class="cls-68"><g class="cls-4"><rect class="cls-65" x="19.13" y="33.94" width="13.73" height="12.85"></rect></g></g><g class="cls-69"><g class="cls-4"><rect class="cls-65" x="16.69" y="38.35" width="13.97" height="12.3"></rect></g></g><g class="cls-70"><g class="cls-4"><rect class="cls-65" x="15.07" y="43.12" width="14.08" height="11.68"></rect></g></g><g class="cls-71"><g class="cls-4"><rect class="cls-65" x="14.31" y="48.13" width="14.07" height="11"></rect></g></g><g class="cls-72"><g class="cls-4"><rect class="cls-65" x="14.36" y="52.8" width="14.08" height="11.12"></rect></g></g><g class="cls-73"><g class="cls-4"><rect class="cls-65" x="15.24" y="57.12" width="14.07" height="11.78"></rect></g></g><g class="cls-74"><g class="cls-4"><rect class="cls-65" x="16.97" y="61.24" width="13.94" height="12.39"></rect></g></g><g class="cls-75"><g class="cls-4"><rect class="cls-65" x="19.52" y="65.04" width="13.68" height="12.93"></rect></g></g><g class="cls-76"><g class="cls-4"><rect class="cls-65" x="22.78" y="68.4" width="13.32" height="13.39"></rect></g></g><g class="cls-77"><g class="cls-4"><rect class="cls-65" x="26.67" y="71.23" width="12.85" height="13.73"></rect></g></g><g class="cls-78"><g class="cls-4"><rect class="cls-65" x="31.07" y="73.43" width="12.3" height="13.97"></rect></g></g><g class="cls-79"><g class="cls-4"><rect class="cls-65" x="35.85" y="74.94" width="11.68" height="14.08"></rect></g></g><g class="cls-80"><g class="cls-4"><rect class="cls-65" x="40.85" y="75.71" width="11.01" height="14.07"></rect></g></g><g class="cls-81"><g class="cls-4"><rect class="cls-65" x="45.53" y="75.65" width="11.12" height="14.08"></rect></g></g><g class="cls-82"><g class="cls-4"><rect class="cls-65" x="49.84" y="74.78" width="11.79" height="14.07"></rect></g></g><g class="cls-83"><g class="cls-4"><rect class="cls-65" x="53.97" y="73.18" width="12.39" height="13.94"></rect></g></g><g class="cls-84"><g class="cls-4"><rect class="cls-65" x="57.77" y="70.89" width="12.94" height="13.68"></rect></g></g><g class="cls-85"><g class="cls-4"><rect class="cls-65" x="61.13" y="67.99" width="13.38" height="13.33"></rect></g></g><g class="cls-86"><g class="cls-4"><rect class="cls-65" x="63.95" y="64.57" width="13.73" height="12.85"></rect></g></g><g class="cls-87"><g class="cls-4"><rect class="cls-65" x="66.16" y="60.72" width="13.97" height="12.3"></rect></g></g><g class="cls-88"><g class="cls-4"><rect class="cls-65" x="67.67" y="56.57" width="14.08" height="11.67"></rect></g></g><g class="cls-89"><g class="cls-4"><rect class="cls-65" x="68.44" y="52.24" width="14.07" height="11"></rect></g></g><g class="cls-90"><g class="cls-4"><rect class="cls-65" x="68.38" y="47.45" width="14.07" height="11.11"></rect></g></g><g class="cls-91"><g class="cls-4"><rect class="cls-65" x="67.51" y="42.46" width="14.07" height="11.78"></rect></g></g><g class="cls-92"><g class="cls-4"><rect class="cls-65" x="65.9" y="37.73" width="13.94" height="12.4"></rect></g></g><g class="cls-93"><g class="cls-4"><rect class="cls-65" x="63.62" y="33.39" width="13.68" height="12.94"></rect></g></g><g class="cls-94"><g class="cls-4"><rect class="cls-65" x="60.72" y="29.57" width="13.32" height="13.39"></rect></g></g><g class="cls-95"><g class="cls-4"><rect class="cls-65" x="57.29" y="26.41" width="12.86" height="13.73"></rect></g></g><g class="cls-96"><g class="cls-4"><rect class="cls-65" x="53.45" y="23.97" width="12.3" height="13.97"></rect></g></g><g class="cls-97"><g class="cls-4"><rect class="cls-65" x="49.29" y="22.34" width="11.68" height="14.09"></rect></g></g><g class="cls-98"><g class="cls-4"><rect class="cls-65" x="44.96" y="21.58" width="11" height="14.08"></rect></g></g><g class="cls-99"><g class="cls-4"><rect class="cls-65" x="40.17" y="21.63" width="11.12" height="14.08"></rect></g></g><g class="cls-100"><g class="cls-4"><rect class="cls-65" x="35.19" y="22.52" width="11.78" height="14.07"></rect></g></g><g class="cls-101"><g class="cls-4"><rect class="cls-102" x="39.67" y="46.89" width="17.51" height="17.51"></rect></g></g><g class="cls-103"><g class="cls-4"><rect class="cls-102" x="42.37" y="28.27" width="18.23" height="30.52"></rect></g></g><g class="cls-104"><g class="cls-4"><rect class="cls-105" x="41.65" y="48.87" width="13.55" height="13.55"></rect></g></g></g></g></svg> 