<?xml version="1.0" encoding="UTF-8"?> <svg xmlns="http://www.w3.org/2000/svg" xmlns:xlink="http://www.w3.org/1999/xlink" viewBox="0 0 412.55 404.84"><defs><style>.cls-1,.cls-2{fill:none;}.cls-1{clip-rule:evenodd;}.cls-3{clip-path:url(#clip-path);}.cls-4{clip-path:url(#clip-path-2);}.cls-5{fill:#794238;}.cls-6{clip-path:url(#clip-path-3);}.cls-7{fill:#121f55;}.cls-8{clip-path:url(#clip-path-5);}.cls-9{clip-path:url(#clip-path-7);}.cls-10{clip-path:url(#clip-path-9);}.cls-11{clip-path:url(#clip-path-11);}.cls-12{clip-path:url(#clip-path-13);}.cls-13{clip-path:url(#clip-path-15);}.cls-14{clip-path:url(#clip-path-17);}.cls-15{clip-path:url(#clip-path-19);}.cls-16{clip-path:url(#clip-path-21);}.cls-17{clip-path:url(#clip-path-23);}.cls-18{clip-path:url(#clip-path-25);}.cls-19{clip-path:url(#clip-path-27);}.cls-20{clip-path:url(#clip-path-29);}.cls-21{clip-path:url(#clip-path-31);}.cls-22{clip-path:url(#clip-path-33);}.cls-23{clip-path:url(#clip-path-35);}.cls-24{clip-path:url(#clip-path-37);}.cls-25{clip-path:url(#clip-path-39);}.cls-26{clip-path:url(#clip-path-41);}.cls-27{clip-path:url(#clip-path-43);}.cls-28{fill:#f39a57;}.cls-29{clip-path:url(#clip-path-45);}.cls-30{clip-path:url(#clip-path-47);}.cls-31{clip-path:url(#clip-path-49);}.cls-32{clip-path:url(#clip-path-51);}.cls-33{fill:#e9d6b8;}.cls-34{clip-path:url(#clip-path-53);}.cls-35{clip-path:url(#clip-path-55);}.cls-36{clip-path:url(#clip-path-57);}.cls-37{clip-path:url(#clip-path-58);}.cls-38{fill:#d1effb;}.cls-39{clip-path:url(#clip-path-59);}.cls-40{fill:#a4dff7;}.cls-41{clip-path:url(#clip-path-61);}.cls-42{clip-path:url(#clip-path-63);}.cls-43{clip-path:url(#clip-path-65);}.cls-44{clip-path:url(#clip-path-67);}.cls-45{clip-path:url(#clip-path-69);}.cls-46{clip-path:url(#clip-path-71);}.cls-47{clip-path:url(#clip-path-73);}.cls-48{clip-path:url(#clip-path-75);}</style><clipPath id="clip-path" transform="translate(-1097.18 -1516.93)"><path class="cls-1" d="M1156,1910.91a41.72,41.72,0,0,0,1.71-6.45c.57-2.77,1.21-6,1.6-7.3.85-2.77-2.91-4.26-4-2s-3.15,13.59-.91,15.09c.88.6,1.8,1,1.6.65"></path></clipPath><clipPath id="clip-path-2" transform="translate(-1097.18 -1516.93)"><rect class="cls-2" width="1440" height="2367"></rect></clipPath><clipPath id="clip-path-3" transform="translate(-1097.18 -1516.93)"><path class="cls-1" d="M1156,1908.2c-5.17-.32-1.72-9.55-.93-12s1.38-2,1.51-3.81c.11-1.52-2.52-1.11-3.27,4.2,0,0-4.95,21.38-1,19.07,2.85-1.69,3.77-7.42,3.72-7.42"></path></clipPath><clipPath id="clip-path-5" transform="translate(-1097.18 -1516.93)"><path class="cls-1" d="M1220.41,1790.67c-1.23-1.42-8.3,2.67-12.16,7-7.57,8.59-10.47,13.75-15.72,24.21-8.32,16.6-21.81,42.87-27.13,54.19-4.79,10.21-13.9,20.72-6.15,21.7,4.63-14.63,18.53-34.48,26.2-44.77,26.19-35.18,38.73-58,35-62.38"></path></clipPath><clipPath id="clip-path-7" transform="translate(-1097.18 -1516.93)"><path class="cls-1" d="M1185.62,1787.87q3-3.36,5.92-6.58c3.87-2.52,6.51-3.48,7.53-2.49,3.83,3.72-4.1,26.58-46.49,66.76-2.13,2-36.26,38.73-35.59,37.73,17.51-26.21,39.13-62.28,68.63-95.42"></path></clipPath><clipPath id="clip-path-9" transform="translate(-1097.18 -1516.93)"><path class="cls-1" d="M1114.31,1885.62c-5.33,3.59-10.4,5.33-11.3,3.88s2.67-5.53,8-9.12,10.38-5.33,11.29-3.88-2.67,5.53-8,9.12"></path></clipPath><clipPath id="clip-path-11" transform="translate(-1097.18 -1516.93)"><path class="cls-1" d="M1116.85,1882.71c-3.56,3.07-7.89,4.27-8.82,2.87s1.51-4.38,5.6-6.74c5.17-3,6.89-3.69,9-6.75,2-2.86,7.56-.93-5.8,10.62"></path></clipPath><clipPath id="clip-path-13" transform="translate(-1097.18 -1516.93)"><path class="cls-1" d="M1234.16,1584.38l-7.44-21.23c-4.8-3.41-10.33-4.61-15.35-2.8-9.68,3.5-13.82,16.93-9.23,30s16.14,20.81,25.82,17.31c6.78-2.46,10.83-9.77,11.09-18.41a8,8,0,0,1-4.89-4.86"></path></clipPath><clipPath id="clip-path-15" transform="translate(-1097.18 -1516.93)"><path class="cls-1" d="M1197.31,1606.76c.31,3.6,4.62,6.14,9.63,5.67l11.41-1c5-.46,8.81-3.75,8.49-7.35l-2.83-32.8c-.3-3.59-4.61-6.13-9.62-5.67l-11.41,1c-5,.45-8.81,3.75-8.5,7.34Z"></path></clipPath><clipPath id="clip-path-17" transform="translate(-1097.18 -1516.93)"><path class="cls-1" d="M1229.07,1613.55c7.26,1.54,10.42,0,5.76,3.13-1.85,3.46-34,5.53-36.55,2-.42-.59,11.94-5,11.91-5.46-.36-5.75-1-10.53-3.88-16.47a1,1,0,0,1,.67-1c2.38-.4,4.78-.85,7.18-1.26.4-.06,5.28,0,4.7,2.46.73,6.19,2.52,15,10.21,16.63"></path></clipPath><clipPath id="clip-path-19" transform="translate(-1097.18 -1516.93)"><path class="cls-1" d="M1227.35,1594.8c.06-.24.12-.48.18-.74,0-.07,0-.14,0-.23.06-.3.13-.61.18-.94a2.34,2.34,0,0,0,0-.26c0-.24.08-.48.11-.73s0-.27,0-.4,0-.42.06-.63,0-.29,0-.44,0-.55,0-.83l0-.64c0-.18,0-.38,0-.58a5.61,5.61,0,0,0,0-.58c0-.17,0-.34,0-.51s0-.27,0-.41h0c-.06-2.35-2.89-12.89-5.64-17.63a1.61,1.61,0,0,0-2-.64c-5.27,1.74-21.84,4.39-14.63,18.8v0s.51,1.29.76,1.87l.06.15c.25.58.51,1.14.78,1.69a1.17,1.17,0,0,0,0,.11c.28.56.56,1.11.86,1.63,0,0,0,0,0,.05,3.75,6.72,8.79,10.62,13.08,9.4,2.51-.71,4.38-3,5.47-6.42h0s0-.05,0-.08q.12-.37.24-.78l.06-.24"></path></clipPath><clipPath id="clip-path-21" transform="translate(-1097.18 -1516.93)"><path class="cls-1" d="M1137.9,1625.91s-1.13.77-1.85,0c-1.2-1.29-2.27-4.51-2.59-5.66s-1-7.62-1-7.62a7.39,7.39,0,0,1,2.08,4.25c.38,3.71,3.34,9,3.34,9"></path></clipPath><clipPath id="clip-path-23" transform="translate(-1097.18 -1516.93)"><path class="cls-1" d="M1138.37,1625.28c-1.49-2-1.47-5-.64-8.47.78-3.31-.56-5-.56-5a42.66,42.66,0,0,0-1.42,7.34,13,13,0,0,0,0,4.53c1,4.33,6.45,6.77,2.62,1.59"></path></clipPath><clipPath id="clip-path-25" transform="translate(-1097.18 -1516.93)"><path class="cls-1" d="M1279.05,1601.34c10.5-10.54,28.26-58.73,28.26-58.73s-1.65-10.93-34.07,49.15c-1.62,3,3.22,12.18,5.81,9.58"></path></clipPath><clipPath id="clip-path-27" transform="translate(-1097.18 -1516.93)"><path class="cls-1" d="M1310.73,1538.69c.66-2.64,3-4.58,6.2-6.17a6.24,6.24,0,0,0,3.54-3.8,39.89,39.89,0,0,0-6.58,3.63c-1.27.81-2.53,1.69-3.73,2.59-4,3-1.12,10.54.57,3.75"></path></clipPath><clipPath id="clip-path-29" transform="translate(-1097.18 -1516.93)"><path class="cls-1" d="M1303.77,1544.25c3,.18,7.4-3.78,8.39-4.46a12.82,12.82,0,0,1,4.9-2.14c-2.72-2.91-7.14.7-9.55.68s-5.5,5.81-3.74,5.92"></path></clipPath><clipPath id="clip-path-31" transform="translate(-1097.18 -1516.93)"><path class="cls-1" d="M1295.35,1562.33c2.38-6.56,5-14.14,7.7-17.13,3.89-4.26,7.76-4.74,9.14-8.5a10,10,0,0,1,.59-1.18c.54-1,1-2.31,1.24-2.71s1.35-1.64.75-1.34c-5.36,2.69-11.09,6.24-11.9,7.45-1.67,2.47-10.29,16.6-12.42,22.52-2.4,6.66,1.69,9.75,4.9.89"></path></clipPath><clipPath id="clip-path-33" transform="translate(-1097.18 -1516.93)"><path class="cls-1" d="M1312.47,1536.48s-1.4-.53-1-1.64c.58-1.82,3.15-4.72,4.1-5.71s7-5.45,7-5.45a8.54,8.54,0,0,1-3,4.41c-3.45,2.56-7,8.39-7,8.39"></path></clipPath><clipPath id="clip-path-35" transform="translate(-1097.18 -1516.93)"><path class="cls-1" d="M1284.89,1570.85c1.35,4.58-3.36,17.06-.87,17.33,8.21-11.07,17.52-46.21,17.52-46.21Z"></path></clipPath><clipPath id="clip-path-37" transform="translate(-1097.18 -1516.93)"><path class="cls-1" d="M1188.56,1642.51c-4.88,5.81-7.09,22.86-9.21,33.83a20.25,20.25,0,0,0,.37,10.28s4.28,12.88,12.58-26.76c2.07-9.92-1.9-19.53-3.74-17.35"></path></clipPath><clipPath id="clip-path-39" transform="translate(-1097.18 -1516.93)"><path class="cls-1" d="M1184.25,1684.77c-2.77-13.26-33.73-43.48-33.73-43.48s-14.68-8,18.62,38.79c10,14.06,15.79,8,15.11,4.69"></path></clipPath><clipPath id="clip-path-41" transform="translate(-1097.18 -1516.93)"><path class="cls-1" d="M1138,1621.84l-.89.87.12,4.28s3.27,7,5.44,9.12,6.88,13,7.81,14.08,7.47-.31,7.47-.31-7.37-9.65-10-13.74-4.35-11.2-5.31-12.84c-1.64-2.8-2.32-4.31-2.32-4.31s-1.35,1.11,1,5.65c.61,1.2-1,1.26-1,1.26Z"></path></clipPath><clipPath id="clip-path-43" transform="translate(-1097.18 -1516.93)"><path class="cls-1" d="M1241.94,1606.13l-48.69,14.61,11.28,42.07c-3.62,23.64-11.88,31.73-14.41,42.35-14.36,60.35-7.52,84.74-5.25,85,23.53,6.35,27,9.57,48.18,8.89,39.45-105.9-1.89-117.35,16.65-151.53-.06-10.68-7.76-41.37-7.76-41.37"></path></clipPath><clipPath id="clip-path-45" transform="translate(-1097.18 -1516.93)"><path class="cls-1" d="M1277.75,1601.82l-37.94,20.59-16.65,4.62a6.42,6.42,0,0,1-3-2.85l-.44-.86c-1.71-3.36.08-7.62,4-9.51l47.8-23.16Z"></path></clipPath><clipPath id="clip-path-47" transform="translate(-1097.18 -1516.93)"><path class="cls-1" d="M1190.09,1678.27l8.14-33.4,1.49-22.47a6.6,6.6,0,0,0-3.54-1.77l-.93-.16a6.73,6.73,0,0,0-7.67,5.62l-8.75,45.5Z"></path></clipPath><clipPath id="clip-path-49" transform="translate(-1097.18 -1516.93)"><path class="cls-1" d="M1138.86,1628.07s-1.57-3.39-1.36-5.35c.16-1.37,1.8-7.69,1.8-7.69a8.66,8.66,0,0,1,.16,4.74,30.19,30.19,0,0,0-.6,8.3"></path></clipPath><clipPath id="clip-path-51" transform="translate(-1097.18 -1516.93)"><path class="cls-1" d="M1139.82,1626.32s1,0,1.28-.44a9,9,0,0,1,.07,1.1c0,.7,1,5.24,1,5.24a39,39,0,0,0-1.8-3.87,19.14,19.14,0,0,1-1.23-2.9c0-.14,0-.4-.09-.67Z"></path></clipPath><clipPath id="clip-path-53" transform="translate(-1097.18 -1516.93)"><path class="cls-1" d="M1140.55,1626c-1.55-3-1.44-4.54-1.22-5.2.36.73,1,1.87,1.87,3.44a23.15,23.15,0,0,1,1.27,3.34c.1.29-1,.81-.89,3.51,0,.49-1.37-2.16-1.84-3.86.42-.07,1.27-.31.81-1.23"></path></clipPath><clipPath id="clip-path-55" transform="translate(-1097.18 -1516.93)"><path class="cls-1" d="M1204.07,1567.29c-.24-.17-.48-.3-.72-.45l-.4,0c-5.13.43-8,3.75-8.68,7.26-4.6,23.13-27.87,10.64-19.75,24.89,5.72,10,25.74,12.58,29.31,13.21a6.62,6.62,0,0,0,1.69-.46c24-12.68-1.45-44.48-1.45-44.48"></path></clipPath><clipPath id="clip-path-57" transform="translate(-1097.18 -1516.93)"><rect class="cls-2" x="1229.02" y="1635" width="276.98" height="172.46" rx="5.97"></rect></clipPath><clipPath id="clip-path-58" transform="translate(-1097.18 -1516.93)"><rect class="cls-2" x="831.85" y="507.69" width="1075.05" height="1767.12"></rect></clipPath><clipPath id="clip-path-59" transform="translate(-1097.18 -1516.93)"><path class="cls-1" d="M1246.94,1655.9H1288a6,6,0,1,1,0,11.95h-41.06a6,6,0,0,1,0-11.95Z"></path></clipPath><clipPath id="clip-path-61" transform="translate(-1097.18 -1516.93)"><path class="cls-1" d="M1306.67,1655.9h181.41a6,6,0,0,1,0,11.95H1306.67a6,6,0,1,1,0-11.95Z"></path></clipPath><clipPath id="clip-path-63" transform="translate(-1097.18 -1516.93)"><rect class="cls-2" x="1240.97" y="1676.81" width="253.09" height="117.21" rx="5.97"></rect></clipPath><clipPath id="clip-path-65" transform="translate(-1097.18 -1516.93)"><path class="cls-1" d="M1267.85,1699.2h181.41a6,6,0,0,1,0,12H1267.85a6,6,0,1,1,0-12Z"></path></clipPath><clipPath id="clip-path-67" transform="translate(-1097.18 -1516.93)"><path class="cls-1" d="M1267.85,1723.84h181.41a6,6,0,0,1,0,12H1267.85a6,6,0,1,1,0-12Z"></path></clipPath><clipPath id="clip-path-69" transform="translate(-1097.18 -1516.93)"><path class="cls-1" d="M1267.85,1748.48h150.8a6,6,0,0,1,0,11.94h-150.8a6,6,0,1,1,0-11.94Z"></path></clipPath><clipPath id="clip-path-71" transform="translate(-1097.18 -1516.93)"><circle class="cls-2" cx="1244.7" cy="1645.45" r="3.73"></circle></clipPath><clipPath id="clip-path-73" transform="translate(-1097.18 -1516.93)"><circle class="cls-2" cx="1255.15" cy="1645.45" r="3.73"></circle></clipPath><clipPath id="clip-path-75" transform="translate(-1097.18 -1516.93)"><circle class="cls-2" cx="1265.61" cy="1645.45" r="3.73"></circle></clipPath></defs><title>online-tutoring</title><g id="Layer_2" data-name="Layer 2"><g id="Layer_1-2" data-name="Layer 1"><g class="cls-3"><g class="cls-4"><rect class="cls-5" x="1142.66" y="1895" width="27" height="15" transform="translate(-1970.24 1301.25) rotate(-83)"></rect></g></g><g class="cls-6"><g class="cls-4"><rect class="cls-7" x="1136.88" y="1896.31" width="34.56" height="14.82" transform="translate(-1973.21 1300.34) rotate(-83)"></rect></g></g><g class="cls-8"><g class="cls-4"><rect class="cls-5" x="1126.66" y="1813" width="124" height="62" transform="translate(-1883.64 1282.14) rotate(-83)"></rect></g></g><g class="cls-9"><g class="cls-4"><rect class="cls-5" x="1096.66" y="1791" width="124" height="80" transform="translate(-1897.08 1240.95) rotate(-83)"></rect></g></g><g class="cls-10"><g class="cls-4"><rect class="cls-7" x="1099.66" y="1869" width="26" height="28" transform="translate(-1989.08 1240.95) rotate(-83)"></rect></g></g><g class="cls-11"><g class="cls-4"><rect class="cls-5" x="1103.16" y="1865.5" width="27" height="26" transform="translate(-1981.1 1240.97) rotate(-83)"></rect></g></g><g class="cls-12"><g class="cls-4"><rect class="cls-7" x="1190.66" y="1559" width="58" height="50" transform="translate(-1598.35 1084.59) rotate(-83)"></rect></g></g><g class="cls-13"><g class="cls-4"><rect class="cls-7" x="1181.66" y="1566" width="58" height="46" transform="translate(-1611.22 1080.05) rotate(-83)"></rect></g></g><g class="cls-14"><g class="cls-4"><rect class="cls-5" x="1200.16" y="1584.5" width="37" height="48" transform="translate(-1623.55 1105.11) rotate(-83)"></rect></g></g><g class="cls-15"><g class="cls-4"><rect class="cls-5" x="1194.16" y="1567.5" width="44" height="35" transform="translate(-1602.42 1082) rotate(-83)"></rect></g></g><g class="cls-16"><g class="cls-4"><rect class="cls-5" x="1123.66" y="1611" width="23" height="17" transform="translate(-1707.79 1031.9) rotate(-83)"></rect></g></g><g class="cls-17"><g class="cls-4"><rect class="cls-5" x="1125.16" y="1612.5" width="26" height="15" transform="translate(-1705.65 1035.32) rotate(-83)"></rect></g></g><g class="cls-18"><g class="cls-4"><rect class="cls-5" x="1253.16" y="1552.5" width="73" height="38" transform="translate(-1524.48 1143.09) rotate(-83)"></rect></g></g><g class="cls-19"><g class="cls-4"><rect class="cls-5" x="1302.16" y="1524.5" width="24" height="21" transform="translate(-1466.74 1135.36) rotate(-83)"></rect></g></g><g class="cls-20"><g class="cls-4"><rect class="cls-5" x="1300.66" y="1529" width="19" height="23" transform="translate(-1475.7 1136.22) rotate(-83)"></rect></g></g><g class="cls-21"><g class="cls-4"><rect class="cls-5" x="1277.66" y="1534" width="49" height="31" transform="translate(-1491.67 1136.18) rotate(-83)"></rect></g></g><g class="cls-22"><g class="cls-4"><rect class="cls-5" x="1304.88" y="1520.19" width="23.92" height="19.63" transform="translate(-1459.42 1133.64) rotate(-83)"></rect></g></g><g class="cls-23"><g class="cls-4"><rect class="cls-5" x="1263.16" y="1553.5" width="58" height="23" transform="translate(-1515.83 1139.87) rotate(-83)"></rect></g></g><g class="cls-24"><g class="cls-4"><rect class="cls-5" x="1157.66" y="1655" width="57" height="21" transform="translate(-1708.66 1122.91) rotate(-83)"></rect></g></g><g class="cls-25"><g class="cls-4"><rect class="cls-5" x="1138.66" y="1639" width="54" height="52" transform="translate(-1726.17 1102.13) rotate(-83)"></rect></g></g><g class="cls-26"><g class="cls-4"><rect class="cls-5" x="1127.66" y="1618" width="40" height="34" transform="translate(-1712.2 1057.91) rotate(-83)"></rect></g></g><g class="cls-27"><g class="cls-4"><rect class="cls-28" x="1116.66" y="1661" width="204" height="80" transform="translate(-1715.36 1186.34) rotate(-83)"></rect></g></g><g class="cls-29"><g class="cls-4"><rect class="cls-28" x="1222.66" y="1576" width="52" height="66" transform="translate(-1597.7 1135.33) rotate(-83)"></rect></g></g><g class="cls-30"><g class="cls-4"><rect class="cls-28" x="1155.66" y="1636" width="68" height="26" transform="translate(-1689.21 1111.9) rotate(-83)"></rect></g></g><g class="cls-31"><g class="cls-4"><rect class="cls-5" x="1127.16" y="1615.5" width="23" height="12" transform="translate(-1706.7 1037.13) rotate(-83)"></rect></g></g><g class="cls-32"><g class="cls-4"><rect class="cls-33" x="1132.16" y="1621.5" width="17" height="14" transform="translate(-1711.89 1045.27) rotate(-83)"></rect></g></g><g class="cls-34"><g class="cls-4"><rect class="cls-5" x="1130.66" y="1619" width="20" height="14" transform="translate(-1709.41 1043.07) rotate(-83)"></rect></g></g><g class="cls-35"><g class="cls-4"><rect class="cls-7" x="1167.66" y="1562" width="55" height="53" transform="translate(-1624.33 1064.23) rotate(-83)"></rect></g></g><g class="cls-36"><g class="cls-37"><rect class="cls-38" x="128.11" y="114.33" width="284.44" height="179.92"></rect></g></g><g class="cls-39"><g class="cls-37"><rect class="cls-40" x="140.06" y="135.24" width="60.47" height="19.41"></rect></g></g><g class="cls-41"><g class="cls-37"><rect class="cls-40" x="199.78" y="135.24" width="200.83" height="19.41"></rect></g></g><g class="cls-42"><g class="cls-37"><rect class="cls-40" x="140.06" y="156.14" width="260.55" height="124.68"></rect></g></g><g class="cls-43"><g class="cls-37"><rect class="cls-38" x="160.96" y="178.54" width="200.83" height="19.41"></rect></g></g><g class="cls-44"><g class="cls-37"><rect class="cls-38" x="160.96" y="203.17" width="200.83" height="19.41"></rect></g></g><g class="cls-45"><g class="cls-37"><rect class="cls-38" x="160.96" y="227.81" width="170.22" height="19.41"></rect></g></g><g class="cls-46"><g class="cls-37"><rect class="cls-7" x="140.06" y="121.05" width="14.93" height="14.93"></rect></g></g><g class="cls-47"><g class="cls-37"><rect class="cls-7" x="150.51" y="121.05" width="14.93" height="14.93"></rect></g></g><g class="cls-48"><g class="cls-37"><rect class="cls-7" x="160.96" y="121.05" width="14.93" height="14.93"></rect></g></g></g></g></svg> 